<?xml version="1.0" encoding="utf-8"?>
<!-- Generator: Adobe Illustrator 25.4.1, SVG Export Plug-In . SVG Version: 6.00 Build 0)  -->
<svg version="1.1" id="Layer_1" xmlns="http://www.w3.org/2000/svg" xmlns:xlink="http://www.w3.org/1999/xlink" x="0px" y="0px"
	 viewBox="0 0 826.3 142.4" style="enable-background:new 0 0 826.3 142.4;" xml:space="preserve">
<style type="text/css">
	.st0{fill:#E60000;}
</style>
<g id="图层_1-2">
	<g>
		<path d="M702.8,60.5c-10.2,0-18.4,8.2-18.4,18.4s8.2,18.4,18.4,18.4s18.4-8.2,18.4-18.4S713,60.5,702.8,60.5z M702.8,91.4
			c-6.9,0-12.4-5.6-12.5-12.4s5.6-12.4,12.4-12.5s12.4,5.6,12.5,12.4c0,0,0,0,0,0C715.2,85.8,709.7,91.4,702.8,91.4z"/>
		<path d="M771.9,60.5c-4.8,0-9.3,2.1-12.4,5.7l-0.9,1.1l-0.9-1.1c-5.9-6.9-16.2-7.7-23-1.8c-3.6,3.1-5.7,7.6-5.7,12.4v20.5h3.5
			c1.3,0,2.4-1.1,2.4-2.4c0,0,0,0,0,0V76.9c0.2-5.8,5-10.3,10.7-10.1c5.5,0.2,9.9,4.6,10.1,10.1v20.5h3.5c1.3,0,2.4-1.1,2.4-2.4
			c0,0,0,0,0,0V76.9c0-5.8,4.7-10.4,10.4-10.4c5.7,0,10.4,4.7,10.4,10.4v20.5h3.5c1.3,0,2.4-1.1,2.4-2.4V76.9
			C788.4,67.8,781,60.5,771.9,60.5C772,60.5,772,60.5,771.9,60.5z"/>
		<path d="M629.1,89.6c-2.2,0-3.9,1.7-3.9,3.9c0,2.2,1.7,3.9,3.9,3.9c2.2,0,3.9-1.7,3.9-3.9c0,0,0,0,0,0
			C633,91.3,631.3,89.6,629.1,89.6z"/>
		<path class="st0" d="M259.6,59.1c-10.9,0-19.8,8.9-19.8,19.8c0,10.9,8.9,19.8,19.8,19.8c10.9,0,19.8-8.9,19.8-19.8c0,0,0,0,0,0
			C279.3,68,270.5,59.2,259.6,59.1z M259.6,90c-6.1,0-11.1-4.9-11.1-11.1s4.9-11.1,11.1-11.1c6.1,0,11.1,4.9,11.1,11.1
			C270.6,85,265.7,90,259.6,90L259.6,90z"/>
		<path d="M541.1,45.2c-2.9,0-5.3,2.4-5.3,5.3s2.4,5.3,5.3,5.3s5.3-2.4,5.3-5.3c0,0,0,0,0,0C546.4,47.6,544,45.3,541.1,45.2z"/>
		<path d="M536.5,59v39.7h4.8c2.2,0,4-1.8,4-4V59H536.5z"/>
		<path class="st0" d="M207.1,45.3c-14.8,0-26.7,12-26.7,26.7s12,26.7,26.7,26.7c14.8,0,26.7-12,26.7-26.7c0-0.8,0-1.7-0.1-2.5l0,0
			H207v8.8h17.5l-0.1,0.3c-3.6,9.4-14.1,14.2-23.5,10.7c-9.4-3.6-14.2-14.1-10.7-23.5c2.7-7.1,9.5-11.8,17.1-11.8
			c7,0,13.3,3.9,16.4,10.2l0,0h8.8v-0.1C229.1,52.8,218.7,45.3,207.1,45.3z"/>
		<path d="M411.7,98.8c10.9,0,19.8-8.9,19.8-19.8V59.1h-8.7v19.8c0,6.1-4.9,11.1-11.1,11.1c-6.1,0-11.1-4.9-11.1-11.1V59.1h-8.8
			v19.8C391.8,89.9,400.7,98.8,411.7,98.8L411.7,98.8z"/>
		<path d="M365.1,98.8c11.9,0,19.8-6.4,19.8-15.9c0-7.6-4.8-11.9-15.4-14l-6.6-1.3c-6-1.2-8.5-3.3-8.5-7.1c0-4.8,4-7.7,10.5-7.7
			c6.3,0,10.2,2.7,11.4,7.9h8.7c-2-14.2-16.3-15.3-20.7-15.3c-11.5,0-19.2,6.4-19.2,15.9c0,7.8,4.9,12.7,14.5,14.5l8.5,1.7
			c6.4,1.1,7.8,4.2,7.8,6.6c0,4.4-4,7.2-10.3,7.2c-7.3,0-12.4-3.4-13.7-9.2h-8.7C344.4,92.3,352.8,98.8,365.1,98.8z"/>
		<path d="M473.3,78.6c-0.3-10.9-9.3-19.5-20.2-19.4h-15.7v53.5h4.8c2.2,0,4-1.8,4-4c0,0,0,0,0,0v-9.9h7.3c11,0,19.8-8.9,19.8-19.9
			C473.3,78.8,473.3,78.7,473.3,78.6z M453.2,90h-7V67.9h7.3c6.1,0,11.1,4.9,11.1,11c0,0.1,0,0.2,0,0.3
			C464.2,85.3,459.2,90,453.2,90z"/>
		<path d="M515,78.6c-0.3-10.9-9.3-19.5-20.1-19.4h-15.7v53.5h4.8c2.2,0,4-1.8,4-4c0,0,0,0,0,0v-9.9h7.3c11,0,19.8-8.9,19.8-19.9
			C515,78.8,515,78.7,515,78.6z M495,90h-7V67.9h7.3c6.1,0,11.1,4.9,11.1,11c0,0.1,0,0.2,0,0.3C506,85.3,501,90,495,90z"/>
		<path d="M521,45.2v53.5h4.8c2.2,0,4-1.8,4-4c0,0,0,0,0,0V45.2H521z"/>
		<path class="st0" d="M335.8,45.2H327v13.9h-7.3c-10.9-0.4-20.1,8.2-20.5,19.1c-0.4,10.9,8.2,20.1,19.1,20.5c0.6,0,1.1,0,1.7,0
			h11.7c2.2,0,4-1.8,4-4L335.8,45.2z M327,90h-7c-6,0.1-11-4.7-11.3-10.7c-0.2-6.1,4.6-11.2,10.7-11.4c0.1,0,0.2,0,0.3,0h7.3L327,90
			z"/>
		<path class="st0" d="M285.3,45.2v53.5h4.8c2.2,0,4-1.8,4-4V45.2H285.3z"/>
		<path d="M572.2,59.1c-10.9,0-19.8,8.9-19.8,19.8s8.9,19.8,19.8,19.8c7.6,0,14.5-4.3,17.8-11.1h-11c-1.9,1.5-4.3,2.3-6.8,2.3
			c-4.8,0-9-3.1-10.5-7.6l-0.1-0.3h30.1c0.2-1.1,0.3-2.1,0.3-3.2C592,68,583.1,59.2,572.2,59.1z M561.6,75.7l0.1-0.3
			c1.9-5.8,8.2-8.9,14-7c3.3,1.1,5.9,3.7,7,7l0.1,0.3H561.6z"/>
		<path d="M670.4,83.8c-2.6,6.3-9.9,9.4-16.3,6.7c-6.3-2.6-9.4-9.9-6.7-16.3c2.6-6.3,9.9-9.4,16.3-6.7c3,1.3,5.5,3.7,6.7,6.7h6.3
			c-2.6-9.8-12.7-15.7-22.6-13c-9.8,2.6-15.7,12.7-13,22.6s12.7,15.7,22.6,13c6.4-1.7,11.3-6.7,13-13H670.4z"/>
		<path d="M617.8,59.1c-3.9,0-7.8,1.2-11.1,3.4V59H598v39.7h4.8c2.2,0,4-1.8,4-4c0,0,0,0,0,0V78.7l0,0c0.1-6,5-10.8,11.1-10.8l0,0
			V59.1z"/>
	</g>
	<g>
		<path class="st0" d="M128.2,112.6c-2.4,0.1-4.8,0.2-7.2,0.2c-41.9,0-76.6-19.1-83.1-44.2c0,0.5,0,0.9,0,1.4
			c0,34.5,37.2,62.4,83.1,62.4c2.7,0,5.3-0.1,7.9-0.3c-0.7-4.2-1-8.4-1-12.6C128,117,128.1,114.6,128.2,112.6z"/>
		<path class="st0" d="M121,65.4c4.8,0,9.6-0.2,14.1-0.7c-0.9-2.4-1.6-8.2-1.6-15c-0.1-4.1,0.2-8.2,0.9-12.3
			c-4.4,0.6-8.9,0.9-13.4,0.9c-22.9,0-41.5-7.2-41.5-16.1c0-4.9,5.7-9.2,14.5-12.2c-22.5,4.6-38.2,14.6-38.2,26.4
			C55.8,52.4,85,65.4,121,65.4z"/>
		<path class="st0" d="M159.9,99.2c-2.5-10.1-3.8-20.4-3.9-30.8c-11.4,2.9-23.2,4.3-34.9,4.2C81.9,72.6,50.2,58,50.2,40
			c0.1-3.6,1.3-7.2,3.4-10.1C45.7,37.6,41,46.7,41,56.4c0,27,35.8,48.9,80,48.9c2.8,0,5.6-0.1,8.3-0.3l2.3-0.2
			c-0.1-0.3-0.2-0.5-0.3-0.7c0.1,0.2,0.2,0.4,0.3,0.7C141.3,104.2,150.8,102.3,159.9,99.2z"/>
	</g>
</g>
</svg>
